<svg width="80" height="46" viewBox="0 0 80 46" fill="none" xmlns="http://www.w3.org/2000/svg">
<g clip-path="url(#clip0_2895_1118)">
<path d="M17.6221 35.9489V35.3803C18.4585 35.3803 19.0353 35.15 19.3526 34.6893C19.6698 34.2287 19.8285 33.4225 19.8285 32.2709V20.042C19.8285 18.8688 19.6698 18.0555 19.3526 17.602C19.0353 17.1414 18.4585 16.9182 17.6221 16.9182V16.3496H26.6279C29.952 16.3496 32.6126 17.2997 34.6099 19.2071C36.6072 21.1145 37.6023 23.5401 37.6023 26.4768C37.6023 29.363 36.6577 31.6663 34.7685 33.3793C32.8794 35.0924 30.2476 35.9561 26.8731 35.9561H17.6221V35.9489ZM26.1016 17.0982H22.4026V31.5727C22.4026 32.9691 22.5684 33.9192 22.9001 34.4302C23.2318 34.9412 23.8952 35.2004 24.8902 35.2004H26.8947C29.2814 35.2004 31.1633 34.423 32.5333 32.8683C33.9033 31.3136 34.5883 29.1903 34.5883 26.5055C34.5883 23.6553 33.8384 21.3736 32.3386 19.6605C30.8461 17.9475 28.7694 17.0982 26.1016 17.0982Z" fill="white"/>
<path d="M47.8054 16.6736H48.476V21.3737H47.7693C47.6107 20.0709 47.0483 19.0632 46.0965 18.329C45.1447 17.6021 43.9478 17.235 42.5057 17.235C41.2222 17.235 40.1911 17.5085 39.4124 18.0555C38.6265 18.6026 38.2371 19.3295 38.2371 20.2436C38.2371 21.0858 38.5616 21.8559 39.2105 22.5541C39.8595 23.2523 41.2583 24.1448 43.4142 25.2388C45.9235 26.5056 47.6107 27.6069 48.4688 28.557C49.334 29.4999 49.7594 30.5867 49.7594 31.8031C49.7594 33.3794 49.1033 34.7182 47.7765 35.841C46.457 36.9567 44.8707 37.5181 43.0104 37.5181C41.9361 37.5181 40.5589 37.2662 38.8933 36.7624C38.2083 36.5608 37.7684 36.4529 37.581 36.4529C37.1916 36.4529 36.8888 36.712 36.6724 37.223H35.9658V31.8031H36.6724C36.6869 33.3003 37.2637 34.4951 38.403 35.3948C39.5422 36.2945 40.8689 36.748 42.3903 36.748C43.8324 36.748 44.9861 36.4241 45.8514 35.7691C46.7166 35.1213 47.1564 34.2504 47.1564 33.1707C47.1564 32.3574 46.8031 31.5872 46.0893 30.8458C45.3755 30.1045 43.8829 29.1472 41.6188 27.9812C39.7657 27.0167 38.5327 26.2537 37.9126 25.6923C37.2925 25.1309 36.8383 24.5191 36.5427 23.8497C36.247 23.1803 36.0956 22.4533 36.0956 21.6544C36.0956 20.1141 36.6941 18.8689 37.8838 17.9044C39.0735 16.9471 40.631 16.4648 42.549 16.4648C43.6017 16.4648 44.7482 16.6448 45.9884 16.9975C46.5652 17.1558 46.969 17.235 47.1997 17.235C47.3872 17.235 47.517 17.199 47.5819 17.1342C47.6468 17.0623 47.7261 16.9111 47.8054 16.6736Z" fill="white"/>
<path d="M50.1417 45.3271C48.6563 45.7734 47.7262 45.3631 47.344 44.1035C47.034 43.0743 47.3945 40.6846 48.4328 36.9346C49.8533 32.0114 51.3098 27.0738 52.7951 22.1362C52.7014 22.0426 52.5788 21.9706 52.4274 21.9203C52.276 21.8699 52.1606 21.8267 52.0813 21.7907C51.3963 21.9922 50.5166 22.6976 49.4206 23.8996C48.3319 25.1016 47.5315 26.0949 47.0196 26.8651L46.1543 26.0014C47.6613 24.0508 48.8438 22.604 49.7091 21.654C51.4972 19.7466 52.9826 18.6165 54.1579 18.2638C55.5207 17.8536 56.3859 18.2566 56.7465 19.4587C57.0565 20.4879 56.1913 24.1875 54.1507 30.5431C52.1173 36.8986 51.1872 40.3967 51.3819 41.0229C51.5045 41.426 51.8073 41.5483 52.3048 41.4044C53.0475 41.1813 53.9632 40.4111 55.052 39.0867C55.5495 38.5037 56.2706 37.5392 57.2223 36.1861L58.0876 37.0498C56.9339 38.8348 55.7875 40.3967 54.6338 41.7355C52.9321 43.7364 51.4396 44.9385 50.1417 45.3271Z" fill="white"/>
<path d="M59.3131 17.2274C63.9405 17.2274 67.6917 13.4829 67.6917 8.86372C67.6917 4.24457 63.9405 0.5 59.3131 0.5C54.6858 0.5 50.9346 4.24457 50.9346 8.86372C50.9346 13.4829 54.6858 17.2274 59.3131 17.2274Z" fill="white"/>
<path d="M63.4022 9.80366C63.8708 7.77786 62.4231 5.71437 60.1686 5.19471C57.9142 4.67506 55.7067 5.89603 55.2381 7.92182C54.7695 9.94761 56.2172 12.0111 58.4717 12.5308C60.7261 13.0504 62.9336 11.8295 63.4022 9.80366Z" fill="white"/>
<path d="M79.9276 14.5501C79.4661 12.9522 76.7045 12.1461 72.3783 12.0381C72.3855 12.0453 72.3927 12.0453 72.3999 12.0525C72.4215 12.0525 72.436 12.0525 72.4576 12.0525C72.4936 12.0525 72.5297 12.0453 72.5657 12.0453C72.6451 12.0453 72.7244 12.0525 72.7965 12.0597C72.8181 12.0597 72.8325 12.0525 72.8542 12.0525C72.9551 12.0525 73.0488 12.0597 73.1354 12.0741C73.2003 12.0741 73.2579 12.0813 73.3156 12.0813C73.4094 12.0813 73.5031 12.0885 73.5896 12.1029C73.6257 12.1101 73.6545 12.1101 73.6906 12.1173C73.6978 12.1173 73.6978 12.1173 73.705 12.1173C73.741 12.1245 73.7771 12.1317 73.8131 12.1389C73.8997 12.1461 73.9862 12.1604 74.0655 12.1748C74.1953 12.1748 74.3107 12.1964 74.426 12.2252C74.5414 12.2324 74.6496 12.2612 74.7577 12.29C74.8298 12.2972 74.9019 12.3044 74.9668 12.3188C75.0533 12.326 75.1399 12.3476 75.2192 12.3692C75.3345 12.3836 75.4499 12.4052 75.5509 12.4412C76.618 12.5707 77.7068 13.0818 78.2548 13.9599C78.6297 14.5573 78.5288 15.3202 78.1178 15.8529C78.0241 16.0904 77.8798 16.3063 77.6996 16.5007C77.6058 16.6734 77.4761 16.8318 77.3246 16.9613C77.2814 17.0117 77.2309 17.0621 77.1804 17.1053C77.0723 17.2636 76.9425 17.4076 76.7766 17.5227C76.6973 17.6307 76.5964 17.7315 76.4882 17.8178C76.207 18.1705 75.8465 18.4728 75.4643 18.7463C74.3756 19.718 73.1065 20.589 71.7726 21.2727C71.6933 21.3231 71.6067 21.3663 71.5202 21.4023C71.5058 21.4095 71.4914 21.4167 71.4842 21.4239C71.3832 21.4959 71.2751 21.5606 71.1597 21.611C70.1286 22.2372 68.9389 22.8922 67.6987 23.4105C67.6915 23.4176 67.6843 23.4248 67.6698 23.432C67.5617 23.4968 67.4391 23.5544 67.3237 23.6048C67.3237 23.6048 67.3309 23.6048 67.3309 23.5976C67.3237 23.5976 67.3237 23.6048 67.3165 23.6048C67.3093 23.612 67.2949 23.612 67.2877 23.6192C66.9848 23.7559 66.6892 23.8927 66.3864 24.0223C66.3864 24.0223 66.3864 24.0223 66.3792 24.0223C66.4585 23.9863 66.5378 23.9575 66.6171 23.9215C66.509 23.9719 66.408 24.0295 66.2998 24.0726C66.2926 24.0726 66.2926 24.0726 66.2926 24.0798C66.2566 24.1014 66.2205 24.1374 66.1773 24.159C66.0403 24.231 65.8889 24.2886 65.7446 24.3534C65.687 24.3893 65.6149 24.4253 65.55 24.4541C65.4851 24.4901 65.413 24.5189 65.3409 24.5477C65.276 24.5837 65.2039 24.6125 65.1318 24.6413C65.1245 24.6485 65.1101 24.6485 65.1029 24.6557H65.0957C65.0885 24.6629 65.0741 24.6629 65.0669 24.67C65.0524 24.6772 65.038 24.6844 65.0236 24.6916C64.9443 24.742 64.8578 24.778 64.7712 24.814C64.7496 24.8212 64.7352 24.8356 64.7135 24.8428C64.6847 24.8572 64.6487 24.8788 64.6126 24.8932C64.591 24.9076 64.5693 24.922 64.5477 24.9364C64.0574 25.1955 63.5527 25.397 63.0335 25.5698C62.8749 25.6921 62.6874 25.7785 62.4711 25.8289C62.4134 25.8649 62.3485 25.9009 62.2764 25.9296C62.1538 26.0016 62.0168 26.052 61.8654 26.0952C61.7645 26.1528 61.6563 26.2032 61.5337 26.2463C61.4833 26.2679 61.4256 26.2895 61.3679 26.3111C61.3607 26.3111 61.3607 26.3111 61.3535 26.3183C61.2669 26.3615 61.1804 26.4047 61.0795 26.4335C60.9929 26.4767 60.9064 26.5127 60.8127 26.5415C60.8055 26.5486 60.7911 26.5486 60.7838 26.5486C60.6685 26.6206 60.5315 26.6782 60.3873 26.7214C60.2791 26.779 60.1565 26.8294 60.0267 26.8653C59.9619 26.8941 59.9042 26.9301 59.8321 26.9517C59.7383 27.0021 59.6374 27.0453 59.522 27.0741C59.4139 27.1317 59.2985 27.182 59.1759 27.218C59.1254 27.2396 59.0822 27.254 59.0317 27.2684C58.974 27.29 58.9163 27.3116 58.8587 27.326C58.7793 27.362 58.7072 27.398 58.6207 27.4268C58.563 27.4556 58.5053 27.4772 58.4477 27.4915C58.3683 27.5347 58.289 27.5707 58.1953 27.5995C58.0655 27.6715 57.9213 27.7291 57.7627 27.7651C57.7266 27.7795 57.6833 27.7939 57.6473 27.8082C57.604 27.8298 57.568 27.8442 57.5247 27.8586C57.3877 27.9378 57.2435 27.9954 57.0777 28.0314C56.9839 28.0746 56.883 28.1177 56.7676 28.1465C56.6739 28.1897 56.5729 28.2329 56.4648 28.2617C56.4071 28.2905 56.3422 28.3193 56.2773 28.3409C56.1908 28.3841 56.1043 28.4201 56.0033 28.4488C55.8879 28.5064 55.7654 28.5568 55.6284 28.5856C55.549 28.6216 55.4697 28.6504 55.3832 28.6648C55.3616 28.672 55.3399 28.6792 55.3183 28.6864C55.2606 28.7152 55.2029 28.7368 55.1381 28.7583C55.1236 28.7655 55.1092 28.7655 55.0948 28.7727H55.0876C54.965 28.8447 54.8208 28.8951 54.6694 28.9311C54.5468 29.0031 54.4098 29.0535 54.2584 29.0894C54.1646 29.1326 54.0637 29.1614 53.9555 29.183C53.833 29.2478 53.696 29.2982 53.5445 29.3342C53.4148 29.3989 53.2778 29.4493 53.1191 29.4853C53.0903 29.4997 53.0542 29.5141 53.0254 29.5285C52.8884 29.6005 52.7442 29.6509 52.5783 29.6868C52.4918 29.7228 52.4125 29.7588 52.3116 29.7876C52.2034 29.838 52.088 29.874 51.9655 29.9028C51.915 29.9244 51.8645 29.9388 51.8068 29.9532C51.6698 30.0323 51.5112 30.0899 51.3309 30.1259C51.2588 30.1619 51.1795 30.1907 51.093 30.2123C51.0353 30.2339 50.9776 30.2555 50.9199 30.2699C50.7901 30.3346 50.6387 30.3706 50.4873 30.3922C50.4801 30.3994 50.4657 30.3994 50.4513 30.3994C50.3719 30.4354 50.2854 30.4714 50.1917 30.493C50.17 30.5002 50.1556 30.5074 50.134 30.5146C50.1196 30.5146 50.1124 30.5218 50.0979 30.5218C49.896 30.601 49.6942 30.6657 49.4923 30.7161C49.3481 30.7953 49.1894 30.8529 49.0092 30.8817C48.8866 30.932 48.7568 30.9752 48.6126 30.9968C48.5333 31.0256 48.4467 31.0544 48.353 31.0688C48.2593 31.1192 48.1511 31.1552 48.043 31.1912C47.906 31.2559 47.7545 31.3063 47.5959 31.3351C47.4661 31.3999 47.3291 31.4503 47.1705 31.4791C47.1489 31.4863 47.1272 31.4863 47.1128 31.4935C46.983 31.5582 46.8388 31.6014 46.6802 31.6302C46.5792 31.6734 46.4711 31.7094 46.3485 31.731C46.2187 31.7886 46.0817 31.8318 45.9231 31.8606C45.887 31.875 45.8438 31.8893 45.8005 31.9037C45.6779 31.9613 45.5481 32.0045 45.4039 32.0261C45.2814 32.0765 45.1588 32.1197 45.0146 32.1413C44.9641 32.1629 44.8992 32.1773 44.8487 32.1916C44.7406 32.2492 44.6108 32.2852 44.481 32.314C44.3152 32.4004 44.1277 32.458 43.9186 32.4868C43.8969 32.4939 43.8681 32.5011 43.8465 32.5155C43.7239 32.5731 43.5869 32.6091 43.4427 32.6379C43.2913 32.7099 43.1254 32.7603 42.938 32.7819C42.7793 32.861 42.6063 32.9114 42.4044 32.9402C42.3106 32.9834 42.2025 33.0122 42.0943 33.0338C42.0294 33.0626 41.9501 33.0914 41.878 33.1058C41.7482 33.1633 41.604 33.2065 41.4454 33.2281C41.3661 33.2497 41.2868 33.2713 41.2074 33.2785C41.1065 33.3217 40.9911 33.3505 40.8758 33.3721C40.7388 33.4369 40.5801 33.48 40.4143 33.5016C40.335 33.5304 40.2484 33.5592 40.1619 33.5736C40.0177 33.6384 39.8519 33.6816 39.6788 33.7032C39.5635 33.7464 39.4409 33.7823 39.3039 33.8039C39.2606 33.8183 39.2246 33.8327 39.1813 33.8471C39.0443 33.9119 38.8857 33.9551 38.7126 33.9767C38.6117 34.0127 38.5035 34.0415 38.3954 34.0559H38.3882C38.2439 34.1206 38.0853 34.171 37.905 34.1998C37.7681 34.2574 37.6166 34.3078 37.4436 34.3222C37.3426 34.3582 37.2345 34.3869 37.1191 34.4013C37.0398 34.4301 36.9533 34.4589 36.8667 34.4805C36.7802 34.5093 36.6865 34.5237 36.5855 34.5381C36.4846 34.5813 36.3692 34.6101 36.2466 34.6317C36.2178 34.6461 36.1817 34.6461 36.1529 34.6533C36.052 34.6893 35.9438 34.718 35.8212 34.7396C34.7685 35.1139 33.6437 35.3298 32.5405 35.5458C32.4756 35.5602 32.4107 35.5746 32.3386 35.589C32.252 35.6106 32.1655 35.6321 32.0718 35.6465C32.0574 35.6537 32.0429 35.6537 32.0285 35.6609C31.9564 35.6897 31.8699 35.7113 31.7906 35.7329C31.7473 35.7473 31.6896 35.7545 31.6392 35.7617C31.5382 35.8049 31.4228 35.8337 31.3075 35.8553C31.2426 35.8769 31.1705 35.8985 31.0912 35.9129C30.9974 35.9273 30.9037 35.9488 30.8172 35.9704C30.7234 36.0064 30.6153 36.028 30.5071 36.0424C30.4206 36.0712 30.3269 36.0856 30.2259 36.1C30.1899 36.1072 30.161 36.1216 30.125 36.1216C30.024 36.1504 29.9231 36.1792 29.8149 36.1936C29.7212 36.2224 29.6202 36.2512 29.5121 36.2583C29.4039 36.2943 29.2885 36.3159 29.166 36.3303C29.0794 36.3591 28.9857 36.3735 28.892 36.3879C28.8631 36.3951 28.8271 36.4023 28.791 36.4095C28.6973 36.4455 28.5891 36.4671 28.481 36.4815C28.4305 36.4959 28.3656 36.5031 28.3151 36.5103C28.2791 36.5247 28.2358 36.5247 28.1998 36.5319C28.1637 36.5463 28.1132 36.5463 28.07 36.5607C27.9546 36.6038 27.8248 36.6326 27.6806 36.647C27.3922 36.7118 27.0966 36.7838 26.8009 36.8342C26.7937 36.8342 26.7937 36.8342 26.7865 36.8342C26.7793 36.8342 26.7721 36.8342 26.7649 36.8342C26.7144 36.8486 26.6639 36.8558 26.6135 36.863C26.5125 36.8989 26.4044 36.9205 26.289 36.9349C26.2385 36.9493 26.1808 36.9565 26.1159 36.9637C26.0438 36.9853 25.9645 36.9997 25.878 37.0069C25.8564 37.0141 25.8347 37.0141 25.8203 37.0213C25.6977 37.0645 25.5679 37.0861 25.4237 37.1077C25.3372 37.1293 25.2435 37.1437 25.1497 37.1581C25.1065 37.1653 25.0632 37.1797 25.02 37.1869C24.9478 37.2012 24.883 37.2156 24.8036 37.2228C24.7748 37.23 24.7387 37.2444 24.7027 37.2444C24.6017 37.2732 24.5008 37.2948 24.3854 37.302C24.3422 37.3092 24.2917 37.3164 24.2484 37.3236H24.2412C24.1331 37.3596 24.0105 37.3812 23.8879 37.3956C23.7942 37.4244 23.686 37.4388 23.5779 37.4532C23.4985 37.4748 23.4048 37.4892 23.3183 37.4964C23.2534 37.5179 23.1813 37.5323 23.1092 37.5395C23.0731 37.5467 23.0371 37.5467 23.0082 37.5539C22.8857 37.5899 22.7559 37.6115 22.6189 37.6115C22.4675 37.6547 22.3088 37.6835 22.143 37.6979C22.0348 37.7267 21.9195 37.7483 21.7969 37.7555C21.7536 37.7699 21.7104 37.7771 21.6599 37.7843C21.6166 37.7915 21.5661 37.7987 21.5157 37.8059C21.494 37.8131 21.4652 37.8131 21.4364 37.8202C21.2345 37.8634 21.0326 37.8922 20.8379 37.9138C20.7802 37.9282 20.7225 37.9354 20.6648 37.9426C20.5927 37.957 20.5134 37.9714 20.4413 37.9786C20.3692 37.993 20.2971 38.0074 20.225 38.0146C20.1745 38.0218 20.1313 38.029 20.0808 38.0362C20.0519 38.0434 20.0231 38.0434 19.9943 38.0506C19.9871 38.0506 19.9798 38.0506 19.9798 38.0506C19.9294 38.0578 19.8789 38.0722 19.8212 38.0794C19.7996 38.0866 19.7779 38.0866 19.7563 38.0866H19.7491C19.7419 38.0866 19.7347 38.0866 19.7275 38.0938C19.6914 38.101 19.6554 38.1082 19.6193 38.1082C19.5833 38.1154 19.5472 38.1226 19.5112 38.1226C19.4895 38.1226 19.4679 38.1298 19.4463 38.1298C19.367 38.1513 19.2804 38.1585 19.2011 38.1657C19.1218 38.1801 19.0425 38.1945 18.9632 38.2017H18.956C18.8478 38.2305 18.7324 38.2449 18.6171 38.2521C18.5954 38.2593 18.5666 38.2593 18.5377 38.2593C18.4873 38.2737 18.4368 38.2809 18.3863 38.2881C18.3142 38.3025 18.2277 38.3097 18.1484 38.3169C18.1123 38.3241 18.0763 38.3241 18.0402 38.3313C17.9681 38.3457 17.8888 38.3529 17.8095 38.3601C17.8023 38.3601 17.7879 38.3673 17.7807 38.3673C17.6941 38.3889 17.6004 38.4033 17.4994 38.4105C17.4273 38.4249 17.3552 38.4321 17.2831 38.4321C17.211 38.4464 17.1461 38.4536 17.0668 38.4608C17.0236 38.468 16.9731 38.468 16.9298 38.4752C16.8505 38.4968 16.764 38.504 16.6774 38.5112C16.5837 38.5256 16.4828 38.54 16.3818 38.54C16.2809 38.5616 16.1799 38.576 16.0718 38.576C16.0646 38.576 16.0574 38.576 16.0501 38.576C15.9997 38.5832 15.9492 38.5904 15.8987 38.5904C15.7978 38.612 15.6824 38.6264 15.567 38.6264C15.4589 38.648 15.3435 38.6624 15.2209 38.6624C15.12 38.684 15.0118 38.6984 14.8965 38.6984C14.7883 38.72 14.6802 38.7344 14.5576 38.7344C14.5432 38.7344 14.5359 38.7344 14.5215 38.7344C14.435 38.7488 14.3485 38.7631 14.2619 38.7631C14.2259 38.7631 14.1971 38.7631 14.161 38.7703C14.0673 38.7847 13.9735 38.7919 13.8654 38.7919C13.8582 38.7919 13.8582 38.7919 13.8509 38.7919C13.8149 38.7919 13.7861 38.7991 13.75 38.7991C13.6923 38.8063 13.6346 38.8135 13.577 38.8135C13.5193 38.8207 13.4544 38.8279 13.3895 38.8279C13.2957 38.8423 13.202 38.8495 13.0939 38.8495C12.654 38.8999 12.207 38.9215 11.7671 38.9359C11.659 38.9575 11.5364 38.9719 11.4138 38.9719C11.4066 38.9719 11.3994 38.9719 11.385 38.9719C10.9163 39.0151 10.4476 39.0295 10.051 39.0079C10.0366 39.0079 10.0222 39.0079 10.0078 39.0079C9.99335 39.0079 9.98614 39.0079 9.97172 39.0079C9.94288 39.0079 9.91404 39.0079 9.87798 39.0007C9.80588 39.0079 9.72656 39.0151 9.64725 39.0151C9.57514 39.0151 9.51025 39.0079 9.44536 39.0007C9.43815 39.0007 9.43094 39.0007 9.42372 39.0007C9.41651 39.0007 9.4093 39.0007 9.40209 39.0007C9.05599 39.0151 8.7171 39.0223 8.37821 39.0007C8.29889 39.0007 8.04653 38.9863 8.01047 38.9863C7.96 38.9935 7.90953 38.9935 7.85184 38.9935C7.77974 38.9935 7.71485 38.9791 7.64274 38.9719C7.59948 38.9719 7.56343 38.9791 7.52016 38.9791C7.44085 38.9791 7.36153 38.9719 7.28222 38.9647H7.27501C7.26059 38.9647 7.24617 38.9647 7.22453 38.9647C7.21011 38.9647 7.18848 38.9647 7.17406 38.9647C7.1308 38.9647 7.09475 38.9575 7.05148 38.9503C7.02264 38.9503 6.98659 38.9575 6.95775 38.9575C6.84959 38.9575 6.74143 38.9431 6.64049 38.9287C6.61164 38.9287 6.5828 38.9215 6.55396 38.9215C6.54675 38.9215 6.53954 38.9215 6.53233 38.9215C6.42417 38.9215 6.31602 38.9143 6.22228 38.8927C6.21507 38.8927 6.20065 38.8927 6.18623 38.8927C6.17902 38.8927 6.17181 38.8927 6.1646 38.8927C6.0276 38.8927 5.8906 38.8783 5.77523 38.8567C5.73197 38.8495 5.6815 38.8495 5.63102 38.8423C5.59497 38.8351 5.55892 38.8423 5.52287 38.8351C5.47239 38.8279 5.42913 38.8207 5.38587 38.8135C5.29934 38.8063 5.22003 38.7991 5.14071 38.7775C4.96045 38.7703 4.7874 38.7416 4.63598 38.6912C4.59993 38.684 4.56387 38.6768 4.52782 38.6696C4.49898 38.6624 4.47014 38.6624 4.44851 38.6552C4.41245 38.648 4.36919 38.6408 4.33314 38.6336C4.22498 38.6192 4.12404 38.5976 4.02309 38.5688C3.94377 38.5544 3.86446 38.5328 3.79235 38.504C3.77793 38.4968 3.76351 38.4968 3.74909 38.4968C3.64814 38.4824 3.55441 38.4608 3.46067 38.4249C3.35973 38.4033 3.26599 38.3673 3.17946 38.3313C3.05689 38.2953 2.94152 38.2593 2.83336 38.2017C2.6531 38.1513 2.50168 38.0794 2.36468 37.9786C2.26374 37.9282 2.17 37.8706 2.08347 37.8059C2.04021 37.7843 2.00416 37.7483 1.96811 37.7267C1.75179 37.6043 1.57874 37.4316 1.44895 37.23C1.33359 37.0717 1.24706 36.8989 1.18938 36.7118C1.18938 36.7046 1.18938 36.7046 1.18938 36.6974C1.18217 36.6758 1.17496 36.6614 1.16775 36.647C1.03796 36.1648 1.14611 35.7761 1.3408 35.3298C1.43453 35.1139 1.5499 34.8764 1.69411 34.682L1.70132 34.6749C1.76621 34.5597 1.83832 34.4517 1.93206 34.3582C1.98253 34.279 2.04021 34.207 2.10511 34.135C2.19163 34.0055 2.28537 33.8831 2.39352 33.7751C2.48005 33.6528 2.58821 33.552 2.71078 33.4656C2.73963 33.4369 2.77568 33.4081 2.81173 33.3793C2.86941 33.3217 2.9271 33.2713 2.99199 33.2209C3.02805 33.1921 3.0641 33.1561 3.10015 33.1273C3.15062 33.0698 3.20831 33.0122 3.2732 32.9618C3.31646 32.9186 3.36694 32.8826 3.4102 32.8394C3.4823 32.7675 3.55441 32.7027 3.64093 32.6451C3.67699 32.6091 3.71304 32.5803 3.74909 32.5515C3.76351 32.5371 3.78514 32.5227 3.80677 32.5083C3.8933 32.4076 4.00146 32.3284 4.11682 32.2564C4.16009 32.2204 4.19614 32.1916 4.2394 32.1629C4.3043 32.0981 4.3764 32.0333 4.45572 31.9829C4.47014 31.9685 4.47735 31.9613 4.49177 31.9469C1.29032 34.1854 -0.368082 36.2008 0.0717559 37.7123C1.36964 42.1749 20.2971 40.6058 42.3539 34.207C64.4035 27.8154 81.2255 19.0127 79.9276 14.5501Z" fill="white"/>
</g>
<defs>
<clipPath id="clip0_2895_1118">
<rect width="80" height="45" fill="white" transform="translate(0 0.5)"/>
</clipPath>
</defs>
</svg>
